# xmcd
#
# Track frame offsets:
#	150
#	16943
#	29694
#	45639
#	57342
#	73433
#	81508
#	98643
#	117404
#	133737
#	148024
#	160691
#	173676
#
# Disc length: 2556 seconds
#
# Revision: 1
# Processed by: cddbd v1.5.1PL0 Copyright (c) Steve Scherf et al.
# Submitted via: audiograbber 1.81.02
#
DISCID=b909fa0d
DTITLE=Whiskey Chimp - Whiskey Chimp
DYEAR=2004
DGENRE=Bluegrass
TTITLE0=good guys and bad guys
TTITLE1=country dance
TTITLE2=sweet emotion
TTITLE3=carve that possum
TTITLE4=frog licker
TTITLE5=tallyson's reel
TTITLE6=blood red
TTITLE7=jar of fireflies
TTITLE8=i never will marry
TTITLE9=paradise city
TTITLE10=man of my word
TTITLE11=darwinian gospel
TTITLE12=comin' down
EXTD=
EXTT0=
EXTT1=
EXTT2=
EXTT3=
EXTT4=
EXTT5=
EXTT6=
EXTT7=
EXTT8=
EXTT9=
EXTT10=
EXTT11=
EXTT12=
PLAYORDER=
